<?xml version="1.0" encoding="UTF-8" standalone="no"?>
<svg
   id="Layer_1"
   data-name="Layer 1"
   viewBox="0 0 122.88 118.04"
   version="1.1"
   sodipodi:docname="drawer.svg"
   inkscape:version="1.3 (0e150ed6c4, 2023-07-21)"
   xmlns:inkscape="http://www.inkscape.org/namespaces/inkscape"
   xmlns:sodipodi="http://sodipodi.sourceforge.net/DTD/sodipodi-0.dtd"
   xmlns="http://www.w3.org/2000/svg"
   xmlns:svg="http://www.w3.org/2000/svg">
  <defs
     id="defs1" />
  <sodipodi:namedview
     id="namedview1"
     pagecolor="#ffffff"
     bordercolor="#000000"
     borderopacity="0.25"
     inkscape:showpageshadow="2"
     inkscape:pageopacity="0.0"
     inkscape:pagecheckerboard="0"
     inkscape:deskcolor="#d1d1d1"
     showgrid="false"
     inkscape:zoom="6.6672314"
     inkscape:cx="61.494791"
     inkscape:cy="59.02"
     inkscape:window-width="1920"
     inkscape:window-height="1001"
     inkscape:window-x="-9"
     inkscape:window-y="-9"
     inkscape:window-maximized="1"
     inkscape:current-layer="Layer_1" />
  <title
     id="title1">drawers</title>
  <path
     d="M115.61,16.18V96.83a7.62,7.62,0,0,1-2.19,5.26,7.69,7.69,0,0,1-.86.73l-.12.07a7.23,7.23,0,0,1-4.29,1.39h-7.54v11.43A2.34,2.34,0,0,1,98.27,118H90.35A2.33,2.33,0,0,1,88,115.71V104.28H34.86v11.43A2.34,2.34,0,0,1,32.53,118H24.6a2.33,2.33,0,0,1-2.33-2.33V104.28H14.73a7.36,7.36,0,0,1-5-1.94l-.29-.25-.16-.17a7.38,7.38,0,0,1-2-5.09V16.18H1.71A1.73,1.73,0,0,1,0,14.47V1.72A1.72,1.72,0,0,1,1.71,0H121.17a1.73,1.73,0,0,1,1.71,1.72V14.47a1.74,1.74,0,0,1-1.71,1.71Zm-5.25,0H12.52V52.56h97.84V16.18ZM61.44,76.48c8.34,0,15.1,1.44,15.1,3.22s-6.76,3.21-15.1,3.21-15.1-1.44-15.1-3.21,6.76-3.22,15.1-3.22Zm0-46c8.34,0,15.1,1.44,15.1,3.22s-6.76,3.21-15.1,3.21-15.1-1.43-15.1-3.21,6.76-3.22,15.1-3.22Zm48.92,28.86H12.52V96.83a2,2,0,0,0,.17.83,2,2,0,0,0,.37.61l.12.12a2.38,2.38,0,0,0,.73.48,2.22,2.22,0,0,0,.82.16h93.42a2.06,2.06,0,0,0,.68-.11,1.93,1.93,0,0,0,.54-.26l.34-.28a2.22,2.22,0,0,0,.48-.72,2,2,0,0,0,.17-.83V59.31Z"
     id="path1"
     style="fill:#f2f2f2" />
</svg>
